<svg xmlns="http://www.w3.org/2000/svg" xmlns:xlink="http://www.w3.org/1999/xlink" width="2000" zoomAndPan="magnify" viewBox="0 0 1500 1499.999933" height="2000" preserveAspectRatio="xMidYMid meet" version="1.0"><defs><g/><clipPath id="b3d25b6d24"><rect x="0" width="1202" y="0" height="272"/></clipPath><clipPath id="b84a659a75"><rect x="0" width="557" y="0" height="97"/></clipPath></defs><g transform="matrix(1, 0, 0, 1, 150, 544)"><g clip-path="url(#b3d25b6d24)"><g fill="#ffffff" fill-opacity="1"><g transform="translate(0.165378, 202.061369)"><g><path d="M 165.234375 -2.703125 C 165.691406 -2.703125 165.921875 -2.25 165.921875 -1.34375 C 165.921875 -0.445312 165.691406 0 165.234375 0 C 159.972656 0 155.757812 -0.0703125 152.59375 -0.21875 L 135.21875 -0.453125 L 114.90625 -0.21875 C 112.1875 -0.0703125 108.5 0 103.84375 0 C 103.382812 0 103.15625 -0.445312 103.15625 -1.34375 C 103.15625 -2.25 103.382812 -2.703125 103.84375 -2.703125 C 109.40625 -2.703125 113.460938 -3.078125 116.015625 -3.828125 C 118.578125 -4.585938 120.3125 -6.019531 121.21875 -8.125 C 122.125 -10.226562 122.578125 -13.613281 122.578125 -18.28125 L 122.578125 -70.203125 L 49.65625 -70.203125 L 49.65625 -18.28125 C 49.65625 -13.769531 50.109375 -10.421875 51.015625 -8.234375 C 51.921875 -6.054688 53.648438 -4.585938 56.203125 -3.828125 C 58.765625 -3.078125 62.828125 -2.703125 68.390625 -2.703125 C 68.691406 -2.703125 68.84375 -2.25 68.84375 -1.34375 C 68.84375 -0.445312 68.691406 0 68.390625 0 C 63.128906 0 58.914062 -0.0703125 55.75 -0.21875 L 36.125 -0.453125 L 19.1875 -0.21875 C 16.175781 -0.0703125 12.035156 0 6.765625 0 C 6.472656 0 6.328125 -0.445312 6.328125 -1.34375 C 6.328125 -2.25 6.472656 -2.703125 6.765625 -2.703125 C 12.035156 -2.703125 15.875 -3.078125 18.28125 -3.828125 C 20.6875 -4.585938 22.34375 -6.054688 23.25 -8.234375 C 24.15625 -10.421875 24.609375 -13.769531 24.609375 -18.28125 L 24.609375 -122.796875 C 24.609375 -127.316406 24.15625 -130.628906 23.25 -132.734375 C 22.34375 -134.835938 20.722656 -136.300781 18.390625 -137.125 C 16.066406 -137.957031 12.34375 -138.375 7.21875 -138.375 C 6.769531 -138.375 6.546875 -138.820312 6.546875 -139.71875 C 6.546875 -140.625 6.769531 -141.078125 7.21875 -141.078125 L 19.40625 -140.859375 C 26.332031 -140.554688 31.90625 -140.40625 36.125 -140.40625 C 41.84375 -140.40625 48.460938 -140.554688 55.984375 -140.859375 L 68.390625 -141.078125 C 68.691406 -141.078125 68.84375 -140.625 68.84375 -139.71875 C 68.84375 -138.820312 68.691406 -138.375 68.390625 -138.375 C 62.972656 -138.375 58.984375 -137.921875 56.421875 -137.015625 C 53.867188 -136.117188 52.101562 -134.578125 51.125 -132.390625 C 50.144531 -130.210938 49.65625 -126.863281 49.65625 -122.34375 L 49.65625 -76.53125 L 122.578125 -76.53125 L 122.578125 -122.34375 C 122.578125 -126.863281 122.125 -130.210938 121.21875 -132.390625 C 120.3125 -134.578125 118.578125 -136.117188 116.015625 -137.015625 C 113.460938 -137.921875 109.40625 -138.375 103.84375 -138.375 C 103.382812 -138.375 103.15625 -138.820312 103.15625 -139.71875 C 103.15625 -140.625 103.382812 -141.078125 103.84375 -141.078125 L 114.90625 -140.859375 C 122.425781 -140.554688 129.195312 -140.40625 135.21875 -140.40625 C 139.28125 -140.40625 145.070312 -140.554688 152.59375 -140.859375 L 165.234375 -141.078125 C 165.691406 -141.078125 165.921875 -140.625 165.921875 -139.71875 C 165.921875 -138.820312 165.691406 -138.375 165.234375 -138.375 C 160.117188 -138.375 156.316406 -137.957031 153.828125 -137.125 C 151.347656 -136.300781 149.691406 -134.835938 148.859375 -132.734375 C 148.035156 -130.628906 147.625 -127.316406 147.625 -122.796875 L 147.625 -18.28125 C 147.625 -13.769531 148.035156 -10.421875 148.859375 -8.234375 C 149.691406 -6.054688 151.3125 -4.585938 153.71875 -3.828125 C 156.132812 -3.078125 159.972656 -2.703125 165.234375 -2.703125 Z M 165.234375 -2.703125 "/></g></g></g><g fill="#ffffff" fill-opacity="1"><g transform="translate(172.60991, 202.061369)"><g><path d="M 112.640625 -14.671875 C 113.085938 -14.671875 113.5 -14.296875 113.875 -13.546875 C 114.257812 -12.796875 114.222656 -12.34375 113.765625 -12.1875 L 82.625 2.9375 C 82.320312 3.082031 81.941406 3.15625 81.484375 3.15625 C 79.984375 3.15625 78.664062 1.539062 77.53125 -1.6875 C 76.40625 -4.925781 75.769531 -9.332031 75.625 -14.90625 C 65.6875 -3.164062 54.925781 2.703125 43.34375 2.703125 C 35.0625 2.703125 28.550781 0.109375 23.8125 -5.078125 C 19.070312 -10.265625 16.703125 -17.078125 16.703125 -25.515625 L 16.703125 -58.6875 C 16.703125 -68.46875 14.367188 -73.359375 9.703125 -73.359375 C 8.046875 -73.359375 6.164062 -72.832031 4.0625 -71.78125 L 3.84375 -71.78125 C 3.238281 -71.78125 2.785156 -72.191406 2.484375 -73.015625 C 2.179688 -73.847656 2.253906 -74.34375 2.703125 -74.5 L 32.953125 -88.9375 L 34.078125 -89.171875 C 34.835938 -89.171875 35.628906 -88.832031 36.453125 -88.15625 C 37.285156 -87.476562 37.703125 -86.835938 37.703125 -86.234375 L 37.703125 -36.34375 C 37.703125 -20.09375 43.945312 -11.96875 56.4375 -11.96875 C 59.75 -11.96875 63.097656 -12.679688 66.484375 -14.109375 C 69.867188 -15.535156 72.914062 -17.53125 75.625 -20.09375 L 75.625 -58.6875 C 75.625 -68.46875 73.289062 -73.359375 68.625 -73.359375 C 66.96875 -73.359375 65.007812 -72.832031 62.75 -71.78125 L 62.53125 -71.78125 C 62.070312 -71.78125 61.691406 -72.191406 61.390625 -73.015625 C 61.097656 -73.847656 61.175781 -74.34375 61.625 -74.5 L 91.875 -88.9375 C 92.175781 -89.09375 92.550781 -89.171875 93 -89.171875 C 93.75 -89.171875 94.535156 -88.832031 95.359375 -88.15625 C 96.191406 -87.476562 96.609375 -86.835938 96.609375 -86.234375 L 96.609375 -26.1875 C 96.609375 -21.070312 97.097656 -17.457031 98.078125 -15.34375 C 99.054688 -13.238281 100.675781 -12.1875 102.9375 -12.1875 C 105.039062 -12.1875 108.125 -13.015625 112.1875 -14.671875 Z M 112.640625 -14.671875 "/></g></g></g><g fill="#ffffff" fill-opacity="1"><g transform="translate(286.594809, 202.061369)"><g><path d="M 171.328125 -2.703125 C 171.929688 -2.703125 172.234375 -2.25 172.234375 -1.34375 C 172.234375 -0.445312 171.929688 0 171.328125 0 C 167.421875 0 164.335938 -0.0703125 162.078125 -0.21875 L 148.53125 -0.453125 L 135.4375 -0.21875 C 133.03125 -0.0703125 129.867188 0 125.953125 0 C 125.503906 0 125.28125 -0.445312 125.28125 -1.34375 C 125.28125 -2.25 125.503906 -2.703125 125.953125 -2.703125 C 130.617188 -2.703125 133.816406 -3.789062 135.546875 -5.96875 C 137.285156 -8.15625 138.15625 -12.257812 138.15625 -18.28125 L 138.15625 -50.796875 C 138.15625 -58.921875 136.757812 -64.9375 133.96875 -68.84375 C 131.1875 -72.757812 126.9375 -74.71875 121.21875 -74.71875 C 117.300781 -74.71875 113.460938 -73.890625 109.703125 -72.234375 C 105.941406 -70.578125 102.707031 -68.320312 100 -65.46875 L 100 -18.28125 C 100 -12.257812 100.863281 -8.15625 102.59375 -5.96875 C 104.320312 -3.789062 107.519531 -2.703125 112.1875 -2.703125 C 112.789062 -2.703125 113.09375 -2.25 113.09375 -1.34375 C 113.09375 -0.445312 112.789062 0 112.1875 0 C 108.28125 0 105.195312 -0.0703125 102.9375 -0.21875 L 89.390625 -0.453125 L 76.296875 -0.21875 C 73.890625 -0.0703125 70.726562 0 66.8125 0 C 66.363281 0 66.140625 -0.445312 66.140625 -1.34375 C 66.140625 -2.25 66.363281 -2.703125 66.8125 -2.703125 C 71.476562 -2.703125 74.675781 -3.789062 76.40625 -5.96875 C 78.132812 -8.15625 79 -12.257812 79 -18.28125 L 79 -50.796875 C 79 -58.921875 77.609375 -64.9375 74.828125 -68.84375 C 72.046875 -72.757812 67.796875 -74.71875 62.078125 -74.71875 C 58.460938 -74.71875 54.882812 -74 51.34375 -72.5625 C 47.8125 -71.132812 44.691406 -69.144531 41.984375 -66.59375 L 41.984375 -18.28125 C 41.984375 -12.257812 42.847656 -8.15625 44.578125 -5.96875 C 46.304688 -3.789062 49.503906 -2.703125 54.171875 -2.703125 C 54.628906 -2.703125 54.859375 -2.25 54.859375 -1.34375 C 54.859375 -0.445312 54.628906 0 54.171875 0 C 50.265625 0 47.179688 -0.0703125 44.921875 -0.21875 L 31.375 -0.453125 L 18.0625 -0.21875 C 15.800781 -0.0703125 12.710938 0 8.796875 0 C 8.347656 0 8.125 -0.445312 8.125 -1.34375 C 8.125 -2.25 8.347656 -2.703125 8.796875 -2.703125 C 13.460938 -2.703125 16.625 -3.789062 18.28125 -5.96875 C 19.9375 -8.15625 20.765625 -12.257812 20.765625 -18.28125 L 20.765625 -60.71875 C 20.765625 -65.382812 20.195312 -68.804688 19.0625 -70.984375 C 17.9375 -73.171875 16.171875 -74.265625 13.765625 -74.265625 C 11.210938 -74.265625 7.601562 -73.210938 2.9375 -71.109375 L 2.484375 -71.109375 C 2.035156 -71.109375 1.695312 -71.484375 1.46875 -72.234375 C 1.238281 -72.984375 1.273438 -73.4375 1.578125 -73.59375 L 32.953125 -88.9375 C 33.859375 -89.238281 34.382812 -89.390625 34.53125 -89.390625 C 36.1875 -89.390625 37.765625 -87.769531 39.265625 -84.53125 C 40.773438 -81.300781 41.679688 -76.976562 41.984375 -71.5625 C 52.222656 -83.75 63.207031 -89.84375 74.9375 -89.84375 C 82.007812 -89.84375 87.648438 -88.109375 91.859375 -84.640625 C 96.078125 -81.179688 98.640625 -76.21875 99.546875 -69.75 C 109.929688 -83.144531 121.445312 -89.84375 134.09375 -89.84375 C 142.21875 -89.84375 148.421875 -87.507812 152.703125 -82.84375 C 156.992188 -78.175781 159.140625 -71.101562 159.140625 -61.625 L 159.140625 -18.28125 C 159.140625 -12.257812 160.003906 -8.15625 161.734375 -5.96875 C 163.460938 -3.789062 166.660156 -2.703125 171.328125 -2.703125 Z M 171.328125 -2.703125 "/></g></g></g><g fill="#ffffff" fill-opacity="1"><g transform="translate(461.973631, 202.061369)"><g><path d="M 94.578125 -12.1875 C 95.179688 -12.1875 95.59375 -11.847656 95.8125 -11.171875 C 96.039062 -10.492188 95.859375 -10.003906 95.265625 -9.703125 L 72.015625 1.359375 C 71.410156 1.660156 70.65625 1.8125 69.75 1.8125 C 67.34375 1.8125 65.046875 0.53125 62.859375 -2.03125 C 60.679688 -4.59375 59.140625 -8.054688 58.234375 -12.421875 L 48.53125 -5.640625 C 45.070312 -3.085938 41.835938 -1.242188 38.828125 -0.109375 C 35.816406 1.015625 32.429688 1.578125 28.671875 1.578125 C 22.203125 1.578125 17.3125 0.148438 14 -2.703125 C 10.6875 -5.566406 9.03125 -9.554688 9.03125 -14.671875 C 9.03125 -18.734375 10.007812 -22.003906 11.96875 -24.484375 C 13.925781 -26.972656 16.367188 -28.929688 19.296875 -30.359375 C 22.234375 -31.785156 26.335938 -33.40625 31.609375 -35.21875 L 37.25 -37.25 L 57.5625 -44.703125 L 57.5625 -57.5625 C 57.5625 -67.195312 56.769531 -74.195312 55.1875 -78.5625 C 53.613281 -82.925781 50.941406 -85.109375 47.171875 -85.109375 C 39.203125 -85.109375 34.691406 -78.9375 33.640625 -66.59375 C 33.179688 -62.070312 31.859375 -58.832031 29.671875 -56.875 C 27.492188 -54.925781 24.453125 -53.953125 20.546875 -53.953125 C 16.785156 -53.953125 14.035156 -54.738281 12.296875 -56.3125 C 10.566406 -57.894531 9.703125 -59.96875 9.703125 -62.53125 C 9.703125 -67.039062 12.335938 -71.363281 17.609375 -75.5 C 22.878906 -79.644531 29.238281 -82.992188 36.6875 -85.546875 C 44.132812 -88.109375 50.71875 -89.390625 56.4375 -89.390625 C 63.050781 -89.390625 68.425781 -87.316406 72.5625 -83.171875 C 76.707031 -79.035156 78.78125 -72.753906 78.78125 -64.328125 L 78.78125 -24.375 C 78.78125 -20.007812 79.566406 -16.625 81.140625 -14.21875 C 82.722656 -11.8125 84.945312 -10.609375 87.8125 -10.609375 C 89.914062 -10.609375 92.097656 -11.132812 94.359375 -12.1875 Z M 57.78125 -16.25 C 57.632812 -16.851562 57.5625 -17.832031 57.5625 -19.1875 L 57.5625 -40.859375 L 47.859375 -36.34375 C 47.398438 -36.195312 45.890625 -35.632812 43.328125 -34.65625 C 40.773438 -33.675781 38.554688 -32.054688 36.671875 -29.796875 C 34.796875 -27.535156 33.859375 -24.898438 33.859375 -21.890625 C 33.859375 -18.285156 35.023438 -15.46875 37.359375 -13.4375 C 39.691406 -11.40625 42.363281 -10.390625 45.375 -10.390625 C 47.78125 -10.390625 50.265625 -11.210938 52.828125 -12.859375 Z M 57.78125 -16.25 "/></g></g></g><g fill="#ffffff" fill-opacity="1"><g transform="translate(556.998685, 202.061369)"><g><path d="M 171.328125 -2.703125 C 171.929688 -2.703125 172.234375 -2.25 172.234375 -1.34375 C 172.234375 -0.445312 171.929688 0 171.328125 0 C 167.421875 0 164.335938 -0.0703125 162.078125 -0.21875 L 148.53125 -0.453125 L 135.4375 -0.21875 C 133.03125 -0.0703125 129.867188 0 125.953125 0 C 125.503906 0 125.28125 -0.445312 125.28125 -1.34375 C 125.28125 -2.25 125.503906 -2.703125 125.953125 -2.703125 C 130.617188 -2.703125 133.816406 -3.789062 135.546875 -5.96875 C 137.285156 -8.15625 138.15625 -12.257812 138.15625 -18.28125 L 138.15625 -50.796875 C 138.15625 -58.921875 136.757812 -64.9375 133.96875 -68.84375 C 131.1875 -72.757812 126.9375 -74.71875 121.21875 -74.71875 C 117.300781 -74.71875 113.460938 -73.890625 109.703125 -72.234375 C 105.941406 -70.578125 102.707031 -68.320312 100 -65.46875 L 100 -18.28125 C 100 -12.257812 100.863281 -8.15625 102.59375 -5.96875 C 104.320312 -3.789062 107.519531 -2.703125 112.1875 -2.703125 C 112.789062 -2.703125 113.09375 -2.25 113.09375 -1.34375 C 113.09375 -0.445312 112.789062 0 112.1875 0 C 108.28125 0 105.195312 -0.0703125 102.9375 -0.21875 L 89.390625 -0.453125 L 76.296875 -0.21875 C 73.890625 -0.0703125 70.726562 0 66.8125 0 C 66.363281 0 66.140625 -0.445312 66.140625 -1.34375 C 66.140625 -2.25 66.363281 -2.703125 66.8125 -2.703125 C 71.476562 -2.703125 74.675781 -3.789062 76.40625 -5.96875 C 78.132812 -8.15625 79 -12.257812 79 -18.28125 L 79 -50.796875 C 79 -58.921875 77.609375 -64.9375 74.828125 -68.84375 C 72.046875 -72.757812 67.796875 -74.71875 62.078125 -74.71875 C 58.460938 -74.71875 54.882812 -74 51.34375 -72.5625 C 47.8125 -71.132812 44.691406 -69.144531 41.984375 -66.59375 L 41.984375 -18.28125 C 41.984375 -12.257812 42.847656 -8.15625 44.578125 -5.96875 C 46.304688 -3.789062 49.503906 -2.703125 54.171875 -2.703125 C 54.628906 -2.703125 54.859375 -2.25 54.859375 -1.34375 C 54.859375 -0.445312 54.628906 0 54.171875 0 C 50.265625 0 47.179688 -0.0703125 44.921875 -0.21875 L 31.375 -0.453125 L 18.0625 -0.21875 C 15.800781 -0.0703125 12.710938 0 8.796875 0 C 8.347656 0 8.125 -0.445312 8.125 -1.34375 C 8.125 -2.25 8.347656 -2.703125 8.796875 -2.703125 C 13.460938 -2.703125 16.625 -3.789062 18.28125 -5.96875 C 19.9375 -8.15625 20.765625 -12.257812 20.765625 -18.28125 L 20.765625 -60.71875 C 20.765625 -65.382812 20.195312 -68.804688 19.0625 -70.984375 C 17.9375 -73.171875 16.171875 -74.265625 13.765625 -74.265625 C 11.210938 -74.265625 7.601562 -73.210938 2.9375 -71.109375 L 2.484375 -71.109375 C 2.035156 -71.109375 1.695312 -71.484375 1.46875 -72.234375 C 1.238281 -72.984375 1.273438 -73.4375 1.578125 -73.59375 L 32.953125 -88.9375 C 33.859375 -89.238281 34.382812 -89.390625 34.53125 -89.390625 C 36.1875 -89.390625 37.765625 -87.769531 39.265625 -84.53125 C 40.773438 -81.300781 41.679688 -76.976562 41.984375 -71.5625 C 52.222656 -83.75 63.207031 -89.84375 74.9375 -89.84375 C 82.007812 -89.84375 87.648438 -88.109375 91.859375 -84.640625 C 96.078125 -81.179688 98.640625 -76.21875 99.546875 -69.75 C 109.929688 -83.144531 121.445312 -89.84375 134.09375 -89.84375 C 142.21875 -89.84375 148.421875 -87.507812 152.703125 -82.84375 C 156.992188 -78.175781 159.140625 -71.101562 159.140625 -61.625 L 159.140625 -18.28125 C 159.140625 -12.257812 160.003906 -8.15625 161.734375 -5.96875 C 163.460938 -3.789062 166.660156 -2.703125 171.328125 -2.703125 Z M 171.328125 -2.703125 "/></g></g></g><g fill="#ffffff" fill-opacity="1"><g transform="translate(732.377506, 202.061369)"><g/></g></g><g fill="#ffffff" fill-opacity="1"><g transform="translate(785.194313, 202.061369)"><g><path d="M 44.921875 -153.046875 C 44.316406 -153.046875 43.9375 -153.382812 43.78125 -154.0625 C 43.632812 -154.738281 43.789062 -155.226562 44.25 -155.53125 C 48.613281 -158.6875 54.707031 -163.648438 62.53125 -170.421875 C 67.039062 -174.335938 70.425781 -177.195312 72.6875 -179 C 73.4375 -179.757812 76.101562 -179.5 80.6875 -178.21875 C 85.28125 -176.9375 89.34375 -175.429688 92.875 -173.703125 C 96.414062 -171.972656 97.285156 -170.957031 95.484375 -170.65625 C 86.148438 -168.394531 77.609375 -165.875 69.859375 -163.09375 C 62.109375 -160.3125 53.945312 -157.039062 45.375 -153.28125 Z M 111.96875 -35.890625 C 111.96875 -36.191406 112.269531 -36.34375 112.875 -36.34375 C 113.320312 -36.34375 113.734375 -36.226562 114.109375 -36 C 114.484375 -35.78125 114.671875 -35.59375 114.671875 -35.4375 C 113.171875 -23.695312 112.421875 -13.015625 112.421875 -3.390625 C 112.421875 -2.179688 112.191406 -1.3125 111.734375 -0.78125 C 111.285156 -0.257812 110.382812 0 109.03125 0 L 9.25 0 C 8.800781 0 8.578125 -0.445312 8.578125 -1.34375 C 8.578125 -2.25 8.800781 -2.703125 9.25 -2.703125 C 14.070312 -2.703125 17.570312 -3.078125 19.75 -3.828125 C 21.9375 -4.585938 23.40625 -6.054688 24.15625 -8.234375 C 24.90625 -10.421875 25.28125 -13.769531 25.28125 -18.28125 L 25.28125 -122.796875 C 25.28125 -127.316406 24.90625 -130.628906 24.15625 -132.734375 C 23.40625 -134.835938 21.898438 -136.300781 19.640625 -137.125 C 17.378906 -137.957031 13.914062 -138.375 9.25 -138.375 C 8.800781 -138.375 8.578125 -138.820312 8.578125 -139.71875 C 8.578125 -140.625 8.800781 -141.078125 9.25 -141.078125 L 104.96875 -141.078125 C 106.46875 -141.078125 107.21875 -140.398438 107.21875 -139.046875 L 107.671875 -109.03125 C 107.671875 -108.726562 107.253906 -108.5 106.421875 -108.34375 C 105.597656 -108.195312 105.113281 -108.347656 104.96875 -108.796875 C 102.5625 -117.523438 98.5 -123.992188 92.78125 -128.203125 C 87.0625 -132.421875 79.535156 -134.53125 70.203125 -134.53125 L 63.4375 -134.53125 C 58.914062 -134.53125 55.601562 -133.550781 53.5 -131.59375 C 51.394531 -129.644531 50.34375 -126.640625 50.34375 -122.578125 L 50.34375 -76.53125 L 69.078125 -76.53125 C 77.804688 -76.53125 84.5 -78.03125 89.15625 -81.03125 C 93.820312 -84.039062 96.15625 -88.257812 96.15625 -93.6875 C 96.15625 -94.132812 96.566406 -94.359375 97.390625 -94.359375 C 98.222656 -94.359375 98.640625 -94.132812 98.640625 -93.6875 L 98.421875 -73.359375 L 98.640625 -62.53125 C 98.941406 -57.414062 99.09375 -53.351562 99.09375 -50.34375 C 99.09375 -50.039062 98.640625 -49.890625 97.734375 -49.890625 C 96.835938 -49.890625 96.390625 -50.039062 96.390625 -50.34375 C 96.390625 -56.507812 94.019531 -61.359375 89.28125 -64.890625 C 84.539062 -68.429688 77.726562 -70.203125 68.84375 -70.203125 L 50.34375 -70.203125 L 50.34375 -19.1875 C 50.34375 -14.820312 51.171875 -11.585938 52.828125 -9.484375 C 54.484375 -7.378906 57.113281 -6.328125 60.71875 -6.328125 L 68.171875 -6.328125 C 79.910156 -6.328125 89.316406 -8.734375 96.390625 -13.546875 C 103.460938 -18.359375 108.65625 -25.804688 111.96875 -35.890625 Z M 111.96875 -35.890625 "/></g></g></g><g fill="#ffffff" fill-opacity="1"><g transform="translate(909.787771, 202.061369)"><g><path d="M 7.90625 0 C 7.601562 0 7.453125 -0.445312 7.453125 -1.34375 C 7.453125 -2.25 7.601562 -2.703125 7.90625 -2.703125 C 12.570312 -2.703125 15.769531 -3.789062 17.5 -5.96875 C 19.226562 -8.15625 20.09375 -12.257812 20.09375 -18.28125 L 20.3125 -132.953125 C 20.3125 -138.222656 19.820312 -141.984375 18.84375 -144.234375 C 17.863281 -146.492188 16.171875 -147.625 13.765625 -147.625 C 11.804688 -147.625 8.945312 -146.796875 5.1875 -145.140625 L 4.96875 -145.140625 C 4.507812 -145.140625 4.09375 -145.550781 3.71875 -146.375 C 3.34375 -147.207031 3.304688 -147.703125 3.609375 -147.859375 L 36.796875 -163.4375 L 37.703125 -163.65625 C 38.453125 -163.65625 39.273438 -163.316406 40.171875 -162.640625 C 41.078125 -161.960938 41.53125 -161.320312 41.53125 -160.71875 L 41.53125 -18.28125 C 41.53125 -12.257812 42.359375 -8.15625 44.015625 -5.96875 C 45.671875 -3.789062 48.832031 -2.703125 53.5 -2.703125 C 54.101562 -2.703125 54.40625 -2.25 54.40625 -1.34375 C 54.40625 -0.445312 54.101562 0 53.5 0 C 49.738281 0 46.726562 -0.0703125 44.46875 -0.21875 L 30.703125 -0.453125 L 17.15625 -0.21875 C 14.894531 -0.0703125 11.8125 0 7.90625 0 Z M 7.90625 0 "/></g></g></g><g fill="#ffffff" fill-opacity="1"><g transform="translate(970.278768, 202.061369)"><g><path d="M 30.46875 -111.734375 C 26.101562 -111.734375 22.71875 -112.9375 20.3125 -115.34375 C 17.90625 -117.757812 16.703125 -121.148438 16.703125 -125.515625 C 16.703125 -129.421875 17.941406 -132.539062 20.421875 -134.875 C 22.910156 -137.207031 26.257812 -138.375 30.46875 -138.375 C 34.6875 -138.375 37.921875 -137.242188 40.171875 -134.984375 C 42.429688 -132.734375 43.5625 -129.578125 43.5625 -125.515625 C 43.5625 -121.148438 42.429688 -117.757812 40.171875 -115.34375 C 37.921875 -112.9375 34.6875 -111.734375 30.46875 -111.734375 Z M 8.796875 0 C 8.347656 0 8.125 -0.445312 8.125 -1.34375 C 8.125 -2.25 8.347656 -2.703125 8.796875 -2.703125 C 13.460938 -2.703125 16.625 -3.789062 18.28125 -5.96875 C 19.9375 -8.15625 20.765625 -12.257812 20.765625 -18.28125 L 20.765625 -58.6875 C 20.765625 -63.800781 20.238281 -67.488281 19.1875 -69.75 C 18.132812 -72.007812 16.40625 -73.140625 14 -73.140625 C 12.039062 -73.140625 9.253906 -72.3125 5.640625 -70.65625 L 5.421875 -70.65625 C 4.816406 -70.65625 4.363281 -71.066406 4.0625 -71.890625 C 3.757812 -72.722656 3.832031 -73.210938 4.28125 -73.359375 L 38.375 -89.171875 L 39.046875 -89.390625 C 39.804688 -89.390625 40.5625 -89.015625 41.3125 -88.265625 C 42.0625 -87.515625 42.4375 -86.835938 42.4375 -86.234375 L 42.4375 -81.265625 C 42.132812 -75.242188 41.984375 -67.867188 41.984375 -59.140625 L 41.984375 -18.28125 C 41.984375 -12.257812 42.847656 -8.15625 44.578125 -5.96875 C 46.304688 -3.789062 49.503906 -2.703125 54.171875 -2.703125 C 54.628906 -2.703125 54.859375 -2.25 54.859375 -1.34375 C 54.859375 -0.445312 54.628906 0 54.171875 0 C 50.265625 0 47.179688 -0.0703125 44.921875 -0.21875 L 31.375 -0.453125 L 18.0625 -0.21875 C 15.800781 -0.0703125 12.710938 0 8.796875 0 Z M 8.796875 0 "/></g></g></g><g fill="#ffffff" fill-opacity="1"><g transform="translate(1029.641248, 202.061369)"><g><path d="M 73.140625 -15.796875 C 73.742188 -15.796875 74.234375 -15.492188 74.609375 -14.890625 C 74.984375 -14.296875 74.945312 -13.847656 74.5 -13.546875 C 68.925781 -7.972656 63.503906 -3.867188 58.234375 -1.234375 C 52.972656 1.390625 47.40625 2.703125 41.53125 2.703125 C 34.914062 2.703125 29.273438 1.125 24.609375 -2.03125 C 19.941406 -5.1875 17.609375 -10.53125 17.609375 -18.0625 L 17.609375 -68.171875 C 17.609375 -72.835938 16.78125 -76.070312 15.125 -77.875 C 13.46875 -79.6875 10.457031 -80.59375 6.09375 -80.59375 C 5.945312 -80.59375 5.757812 -80.816406 5.53125 -81.265625 C 5.300781 -81.710938 5.1875 -82.164062 5.1875 -82.625 C 5.1875 -83.21875 5.257812 -83.703125 5.40625 -84.078125 C 5.5625 -84.460938 5.789062 -84.65625 6.09375 -84.65625 C 13.769531 -84.957031 19.976562 -86.609375 24.71875 -89.609375 C 29.457031 -92.617188 33.109375 -97.210938 35.671875 -103.390625 C 35.972656 -103.992188 36.609375 -104.296875 37.578125 -104.296875 C 38.554688 -104.296875 39.046875 -103.992188 39.046875 -103.390625 L 39.046875 -85.328125 C 47.773438 -85.472656 57.554688 -86.148438 68.390625 -87.359375 C 68.691406 -87.359375 69.03125 -86.789062 69.40625 -85.65625 C 69.789062 -84.53125 69.984375 -83.289062 69.984375 -81.9375 C 69.984375 -80.4375 69.71875 -78.96875 69.1875 -77.53125 C 68.65625 -76.101562 68.09375 -75.46875 67.5 -75.625 C 57.71875 -77.726562 48.234375 -78.851562 39.046875 -79 L 39.046875 -25.515625 C 39.046875 -19.796875 40.515625 -15.578125 43.453125 -12.859375 C 46.390625 -10.148438 50.265625 -8.796875 55.078125 -8.796875 C 61.097656 -8.796875 66.96875 -11.054688 72.6875 -15.578125 Z M 73.140625 -15.796875 "/></g></g></g><g fill="#ffffff" fill-opacity="1"><g transform="translate(1105.480705, 202.061369)"><g><path d="M 87.578125 -14.90625 C 87.878906 -14.90625 88.21875 -14.601562 88.59375 -14 C 88.976562 -13.394531 89.019531 -12.941406 88.71875 -12.640625 C 83.144531 -7.222656 77.5 -3.3125 71.78125 -0.90625 C 66.0625 1.5 59.816406 2.703125 53.046875 2.703125 C 43.566406 2.703125 35.363281 0.710938 28.4375 -3.265625 C 21.519531 -7.253906 16.253906 -12.597656 12.640625 -19.296875 C 9.023438 -25.992188 7.21875 -33.253906 7.21875 -41.078125 C 7.21875 -49.804688 9.398438 -57.859375 13.765625 -65.234375 C 18.128906 -72.609375 24.1875 -78.441406 31.9375 -82.734375 C 39.6875 -87.023438 48.453125 -89.171875 58.234375 -89.171875 C 67.566406 -89.171875 74.789062 -87.0625 79.90625 -82.84375 C 85.019531 -78.632812 87.578125 -72.085938 87.578125 -63.203125 C 87.578125 -58.535156 86.753906 -56.203125 85.109375 -56.203125 L 30.25 -55.984375 C 30.09375 -54.929688 30.015625 -53.203125 30.015625 -50.796875 C 30.015625 -37.546875 33.0625 -27.160156 39.15625 -19.640625 C 45.257812 -12.117188 54.03125 -8.359375 65.46875 -8.359375 C 69.53125 -8.359375 72.988281 -8.804688 75.84375 -9.703125 C 78.707031 -10.609375 82.472656 -12.265625 87.140625 -14.671875 Z M 49.65625 -84.65625 C 44.695312 -84.65625 40.5625 -82.507812 37.25 -78.21875 C 33.9375 -73.925781 31.753906 -68.019531 30.703125 -60.5 L 63.4375 -60.953125 C 63.28125 -68.617188 62.148438 -74.484375 60.046875 -78.546875 C 57.941406 -82.617188 54.476562 -84.65625 49.65625 -84.65625 Z M 49.65625 -84.65625 "/></g></g></g></g></g><path stroke-linecap="butt" transform="matrix(0.749979, 0.00558759, -0.00558759, 0.749979, 383.371025, 808.189182)" fill="none" stroke-linejoin="miter" d="M 0.000143763 6.997951 L 1073.806104 6.997964 " stroke="#c9a84c" stroke-width="14" stroke-opacity="1" stroke-miterlimit="4"/><g transform="matrix(1, 0, 0, 1, 522, 860)"><g clip-path="url(#b84a659a75)"><g fill="#ffffff" fill-opacity="1"><g transform="translate(1.0088, 69.614473)"><g><path d="M 38.484375 -12.328125 C 38.484375 -12.429688 38.582031 -12.484375 38.78125 -12.484375 C 38.9375 -12.484375 39.078125 -12.441406 39.203125 -12.359375 C 39.335938 -12.285156 39.40625 -12.226562 39.40625 -12.1875 C 38.894531 -8.144531 38.640625 -4.46875 38.640625 -1.15625 C 38.640625 -0.75 38.5625 -0.453125 38.40625 -0.265625 C 38.25 -0.0859375 37.9375 0 37.46875 0 L 3.1875 0 C 3.03125 0 2.953125 -0.15625 2.953125 -0.46875 C 2.953125 -0.78125 3.03125 -0.9375 3.1875 -0.9375 C 4.832031 -0.9375 6.03125 -1.0625 6.78125 -1.3125 C 7.53125 -1.570312 8.035156 -2.078125 8.296875 -2.828125 C 8.554688 -3.578125 8.6875 -4.726562 8.6875 -6.28125 L 8.6875 -42.203125 C 8.6875 -43.753906 8.554688 -44.890625 8.296875 -45.609375 C 8.035156 -46.335938 7.515625 -46.84375 6.734375 -47.125 C 5.960938 -47.414062 4.78125 -47.5625 3.1875 -47.5625 C 3.03125 -47.5625 2.953125 -47.710938 2.953125 -48.015625 C 2.953125 -48.328125 3.03125 -48.484375 3.1875 -48.484375 L 36.078125 -48.484375 C 36.585938 -48.484375 36.84375 -48.25 36.84375 -47.78125 L 37 -37.46875 C 37 -37.363281 36.859375 -37.285156 36.578125 -37.234375 C 36.296875 -37.179688 36.128906 -37.234375 36.078125 -37.390625 C 35.242188 -40.390625 33.84375 -42.613281 31.875 -44.0625 C 29.914062 -45.507812 27.332031 -46.234375 24.125 -46.234375 L 21.796875 -46.234375 C 20.242188 -46.234375 19.101562 -45.894531 18.375 -45.21875 C 17.65625 -44.550781 17.296875 -43.519531 17.296875 -42.125 L 17.296875 -26.296875 L 23.734375 -26.296875 C 26.734375 -26.296875 29.035156 -26.8125 30.640625 -27.84375 C 32.242188 -28.882812 33.046875 -30.332031 33.046875 -32.1875 C 33.046875 -32.34375 33.1875 -32.421875 33.46875 -32.421875 C 33.757812 -32.421875 33.90625 -32.34375 33.90625 -32.1875 L 33.828125 -25.21875 L 33.90625 -21.484375 C 34.007812 -19.722656 34.0625 -18.328125 34.0625 -17.296875 C 34.0625 -17.191406 33.90625 -17.140625 33.59375 -17.140625 C 33.28125 -17.140625 33.125 -17.191406 33.125 -17.296875 C 33.125 -19.421875 32.304688 -21.085938 30.671875 -22.296875 C 29.046875 -23.515625 26.707031 -24.125 23.65625 -24.125 L 17.296875 -24.125 L 17.296875 -6.59375 C 17.296875 -5.09375 17.578125 -3.976562 18.140625 -3.25 C 18.710938 -2.53125 19.625 -2.171875 20.875 -2.171875 L 23.421875 -2.171875 C 27.460938 -2.171875 30.695312 -3 33.125 -4.65625 C 35.550781 -6.3125 37.335938 -8.867188 38.484375 -12.328125 Z M 38.484375 -12.328125 "/></g></g></g><g fill="#ffffff" fill-opacity="1"><g transform="translate(72.999011, 69.614473)"><g><path d="M 13.5 -40.65625 C 13.5 -38.789062 13.976562 -37.132812 14.9375 -35.6875 C 15.894531 -34.238281 17.070312 -32.96875 18.46875 -31.875 C 19.863281 -30.789062 21.75 -29.472656 24.125 -27.921875 C 26.707031 -26.273438 28.773438 -24.828125 30.328125 -23.578125 C 31.878906 -22.335938 33.195312 -20.828125 34.28125 -19.046875 C 35.375 -17.265625 35.921875 -15.207031 35.921875 -12.875 C 35.921875 -10.1875 35.195312 -7.796875 33.75 -5.703125 C 32.300781 -3.609375 30.296875 -1.976562 27.734375 -0.8125 C 25.171875 0.351562 22.3125 0.9375 19.15625 0.9375 C 16.832031 0.9375 14.398438 0.613281 11.859375 -0.03125 C 9.328125 -0.6875 7.625 -1.398438 6.75 -2.171875 C 6.488281 -2.378906 6.289062 -2.570312 6.15625 -2.75 C 6.03125 -2.9375 5.96875 -3.234375 5.96875 -3.640625 L 5.734375 -15.984375 L 5.734375 -16.0625 C 5.734375 -16.269531 5.863281 -16.382812 6.125 -16.40625 C 6.382812 -16.4375 6.539062 -16.347656 6.59375 -16.140625 C 8.144531 -12.984375 9.5 -10.421875 10.65625 -8.453125 C 11.820312 -6.492188 13.296875 -4.765625 15.078125 -3.265625 C 16.867188 -1.765625 18.898438 -1.015625 21.171875 -1.015625 C 23.242188 -1.015625 24.953125 -1.566406 26.296875 -2.671875 C 27.640625 -3.785156 28.3125 -5.6875 28.3125 -8.375 C 28.3125 -10.65625 27.804688 -12.644531 26.796875 -14.34375 C 25.796875 -16.050781 24.570312 -17.5 23.125 -18.6875 C 21.675781 -19.882812 19.679688 -21.3125 17.140625 -22.96875 C 14.660156 -24.570312 12.734375 -25.941406 11.359375 -27.078125 C 9.992188 -28.210938 8.816406 -29.582031 7.828125 -31.1875 C 6.847656 -32.789062 6.359375 -34.675781 6.359375 -36.84375 C 6.359375 -39.59375 7.144531 -41.910156 8.71875 -43.796875 C 10.300781 -45.679688 12.332031 -47.078125 14.8125 -47.984375 C 17.300781 -48.890625 19.914062 -49.34375 22.65625 -49.34375 C 24.46875 -49.34375 26.300781 -49.171875 28.15625 -48.828125 C 30.019531 -48.492188 31.519531 -48.097656 32.65625 -47.640625 C 33.125 -47.429688 33.4375 -47.207031 33.59375 -46.96875 C 33.75 -46.738281 33.828125 -46.441406 33.828125 -46.078125 L 33.828125 -34.671875 C 33.828125 -34.515625 33.695312 -34.398438 33.4375 -34.328125 C 33.175781 -34.253906 33.019531 -34.289062 32.96875 -34.4375 L 32.34375 -35.921875 C 31.050781 -39.179688 29.539062 -41.945312 27.8125 -44.21875 C 26.082031 -46.5 23.664062 -47.640625 20.5625 -47.640625 C 18.488281 -47.640625 16.789062 -47.039062 15.46875 -45.84375 C 14.15625 -44.65625 13.5 -42.925781 13.5 -40.65625 Z M 13.5 -40.65625 "/></g></g></g><g fill="#ffffff" fill-opacity="1"><g transform="translate(142.119767, 69.614473)"><g><path d="M 17.21875 -46.703125 C 11.0625 -46.703125 6.640625 -42.691406 3.953125 -34.671875 C 3.898438 -34.515625 3.742188 -34.445312 3.484375 -34.46875 C 3.234375 -34.5 3.109375 -34.59375 3.109375 -34.75 C 3.304688 -36.820312 3.535156 -39.5 3.796875 -42.78125 C 4.054688 -46.0625 4.1875 -48.53125 4.1875 -50.1875 C 4.1875 -50.445312 4.328125 -50.578125 4.609375 -50.578125 C 4.898438 -50.578125 5.046875 -50.445312 5.046875 -50.1875 C 5.046875 -49.050781 6.519531 -48.484375 9.46875 -48.484375 C 13.914062 -48.328125 19.113281 -48.25 25.0625 -48.25 C 28.113281 -48.25 31.34375 -48.300781 34.75 -48.40625 L 40.03125 -48.484375 C 42 -48.484375 43.429688 -48.613281 44.328125 -48.875 C 45.234375 -49.132812 45.816406 -49.648438 46.078125 -50.421875 C 46.128906 -50.628906 46.296875 -50.734375 46.578125 -50.734375 C 46.867188 -50.734375 47.015625 -50.628906 47.015625 -50.421875 C 46.859375 -48.867188 46.6875 -46.382812 46.5 -42.96875 C 46.320312 -39.5625 46.234375 -36.820312 46.234375 -34.75 C 46.234375 -34.59375 46.101562 -34.515625 45.84375 -34.515625 C 45.582031 -34.515625 45.429688 -34.59375 45.390625 -34.75 C 44.609375 -38.738281 43.15625 -41.726562 41.03125 -43.71875 C 38.914062 -45.707031 36.304688 -46.703125 33.203125 -46.703125 C 31.703125 -46.703125 30.707031 -46.378906 30.21875 -45.734375 C 29.726562 -45.085938 29.484375 -43.859375 29.484375 -42.046875 L 29.484375 -6.28125 C 29.484375 -4.675781 29.632812 -3.507812 29.9375 -2.78125 C 30.25 -2.0625 30.84375 -1.570312 31.71875 -1.3125 C 32.601562 -1.0625 34.003906 -0.9375 35.921875 -0.9375 C 36.078125 -0.9375 36.15625 -0.78125 36.15625 -0.46875 C 36.15625 -0.15625 36.078125 0 35.921875 0 C 34.054688 0 32.582031 -0.0234375 31.5 -0.078125 L 25.0625 -0.15625 L 18.78125 -0.078125 C 17.6875 -0.0234375 16.1875 0 14.28125 0 C 14.125 0 14.046875 -0.15625 14.046875 -0.46875 C 14.046875 -0.78125 14.125 -0.9375 14.28125 -0.9375 C 16.132812 -0.9375 17.515625 -1.0625 18.421875 -1.3125 C 19.328125 -1.570312 19.945312 -2.078125 20.28125 -2.828125 C 20.625 -3.578125 20.796875 -4.726562 20.796875 -6.28125 L 20.796875 -42.203125 C 20.796875 -43.960938 20.5625 -45.148438 20.09375 -45.765625 C 19.625 -46.390625 18.664062 -46.703125 17.21875 -46.703125 Z M 17.21875 -46.703125 "/></g></g></g><g fill="#ffffff" fill-opacity="1"><g transform="translate(215.737232, 69.614473)"><g><path d="M 8.140625 0.859375 C 6.691406 0.859375 5.539062 0.429688 4.6875 -0.421875 C 3.832031 -1.273438 3.40625 -2.425781 3.40625 -3.875 C 3.40625 -5.21875 3.832031 -6.300781 4.6875 -7.125 C 5.539062 -7.957031 6.691406 -8.375 8.140625 -8.375 C 9.585938 -8.375 10.710938 -7.972656 11.515625 -7.171875 C 12.316406 -6.367188 12.71875 -5.269531 12.71875 -3.875 C 12.71875 -2.375 12.316406 -1.207031 11.515625 -0.375 C 10.710938 0.445312 9.585938 0.859375 8.140625 0.859375 Z M 8.140625 0.859375 "/></g></g></g><g fill="#ffffff" fill-opacity="1"><g transform="translate(260.971651, 69.614473)"><g/></g></g><g fill="#ffffff" fill-opacity="1"><g transform="translate(308.300008, 69.614473)"><g><path d="M 2.875 -2.09375 C 7.375 -6.226562 10.65625 -9.34375 12.71875 -11.4375 C 14.789062 -13.53125 16.253906 -15.328125 17.109375 -16.828125 C 17.960938 -18.328125 18.390625 -19.851562 18.390625 -21.40625 C 18.390625 -23.320312 17.894531 -24.988281 16.90625 -26.40625 C 15.925781 -27.832031 14.53125 -28.546875 12.71875 -28.546875 C 10.8125 -28.546875 9.25 -27.703125 8.03125 -26.015625 C 6.8125 -24.335938 5.582031 -21.742188 4.34375 -18.234375 C 4.34375 -18.179688 4.238281 -18.15625 4.03125 -18.15625 C 3.5625 -18.15625 3.351562 -18.234375 3.40625 -18.390625 L 6.828125 -31.65625 C 6.828125 -31.757812 6.929688 -31.8125 7.140625 -31.8125 C 7.296875 -31.8125 7.4375 -31.769531 7.5625 -31.6875 C 7.6875 -31.613281 7.726562 -31.550781 7.6875 -31.5 C 7.632812 -31.238281 7.609375 -30.925781 7.609375 -30.5625 C 7.609375 -29.6875 7.992188 -29.25 8.765625 -29.25 C 9.234375 -29.25 10.007812 -29.429688 11.09375 -29.796875 C 13.3125 -30.566406 15.351562 -30.953125 17.21875 -30.953125 C 20.0625 -30.953125 22.285156 -30.28125 23.890625 -28.9375 C 25.492188 -27.59375 26.296875 -25.804688 26.296875 -23.578125 C 26.296875 -20.890625 25.25 -18.445312 23.15625 -16.25 C 21.0625 -14.050781 18.175781 -11.660156 14.5 -9.078125 L 11.40625 -6.75 C 11.25 -6.59375 11.207031 -6.460938 11.28125 -6.359375 C 11.363281 -6.253906 11.535156 -6.203125 11.796875 -6.203125 C 15.929688 -6.203125 19.046875 -6.28125 21.140625 -6.4375 C 23.234375 -6.59375 24.882812 -6.941406 26.09375 -7.484375 C 27.3125 -8.023438 28.101562 -8.890625 28.46875 -10.078125 C 28.519531 -10.234375 28.6875 -10.3125 28.96875 -10.3125 C 29.257812 -10.3125 29.40625 -10.234375 29.40625 -10.078125 L 27.765625 -0.859375 C 27.765625 -0.648438 27.703125 -0.453125 27.578125 -0.265625 C 27.453125 -0.0859375 27.285156 0 27.078125 0 L 3.328125 0 C 3.128906 0 2.960938 -0.15625 2.828125 -0.46875 C 2.703125 -0.78125 2.640625 -1.085938 2.640625 -1.390625 C 2.640625 -1.703125 2.71875 -1.9375 2.875 -2.09375 Z M 2.875 -2.09375 "/></g></g></g><g fill="#ffffff" fill-opacity="1"><g transform="translate(368.657216, 69.614473)"><g><path d="M 18.625 1.015625 C 15.414062 1.015625 12.554688 0.316406 10.046875 -1.078125 C 7.535156 -2.484375 5.566406 -4.410156 4.140625 -6.859375 C 2.722656 -9.316406 2.015625 -12.070312 2.015625 -15.125 C 2.015625 -18.175781 2.722656 -20.90625 4.140625 -23.3125 C 5.566406 -25.71875 7.535156 -27.59375 10.046875 -28.9375 C 12.554688 -30.28125 15.414062 -30.953125 18.625 -30.953125 C 21.820312 -30.953125 24.660156 -30.265625 27.140625 -28.890625 C 29.628906 -27.523438 31.554688 -25.625 32.921875 -23.1875 C 34.296875 -20.757812 34.984375 -18.019531 34.984375 -14.96875 C 34.984375 -11.914062 34.285156 -9.175781 32.890625 -6.75 C 31.492188 -4.320312 29.550781 -2.421875 27.0625 -1.046875 C 24.582031 0.328125 21.769531 1.015625 18.625 1.015625 Z M 19.390625 -0.625 C 21.773438 -0.625 23.570312 -1.785156 24.78125 -4.109375 C 26 -6.441406 26.609375 -9.703125 26.609375 -13.890625 C 26.609375 -19.109375 25.789062 -22.984375 24.15625 -25.515625 C 22.53125 -28.054688 20.476562 -29.328125 18 -29.328125 C 15.570312 -29.328125 13.679688 -28.125 12.328125 -25.71875 C 10.984375 -23.3125 10.3125 -20.066406 10.3125 -15.984375 C 10.3125 -11.378906 11.140625 -7.664062 12.796875 -4.84375 C 14.453125 -2.03125 16.648438 -0.625 19.390625 -0.625 Z M 19.390625 -0.625 "/></g></g></g><g fill="#ffffff" fill-opacity="1"><g transform="translate(434.830926, 69.614473)"><g><path d="M 2.875 -2.09375 C 7.375 -6.226562 10.65625 -9.34375 12.71875 -11.4375 C 14.789062 -13.53125 16.253906 -15.328125 17.109375 -16.828125 C 17.960938 -18.328125 18.390625 -19.851562 18.390625 -21.40625 C 18.390625 -23.320312 17.894531 -24.988281 16.90625 -26.40625 C 15.925781 -27.832031 14.53125 -28.546875 12.71875 -28.546875 C 10.8125 -28.546875 9.25 -27.703125 8.03125 -26.015625 C 6.8125 -24.335938 5.582031 -21.742188 4.34375 -18.234375 C 4.34375 -18.179688 4.238281 -18.15625 4.03125 -18.15625 C 3.5625 -18.15625 3.351562 -18.234375 3.40625 -18.390625 L 6.828125 -31.65625 C 6.828125 -31.757812 6.929688 -31.8125 7.140625 -31.8125 C 7.296875 -31.8125 7.4375 -31.769531 7.5625 -31.6875 C 7.6875 -31.613281 7.726562 -31.550781 7.6875 -31.5 C 7.632812 -31.238281 7.609375 -30.925781 7.609375 -30.5625 C 7.609375 -29.6875 7.992188 -29.25 8.765625 -29.25 C 9.234375 -29.25 10.007812 -29.429688 11.09375 -29.796875 C 13.3125 -30.566406 15.351562 -30.953125 17.21875 -30.953125 C 20.0625 -30.953125 22.285156 -30.28125 23.890625 -28.9375 C 25.492188 -27.59375 26.296875 -25.804688 26.296875 -23.578125 C 26.296875 -20.890625 25.25 -18.445312 23.15625 -16.25 C 21.0625 -14.050781 18.175781 -11.660156 14.5 -9.078125 L 11.40625 -6.75 C 11.25 -6.59375 11.207031 -6.460938 11.28125 -6.359375 C 11.363281 -6.253906 11.535156 -6.203125 11.796875 -6.203125 C 15.929688 -6.203125 19.046875 -6.28125 21.140625 -6.4375 C 23.234375 -6.59375 24.882812 -6.941406 26.09375 -7.484375 C 27.3125 -8.023438 28.101562 -8.890625 28.46875 -10.078125 C 28.519531 -10.234375 28.6875 -10.3125 28.96875 -10.3125 C 29.257812 -10.3125 29.40625 -10.234375 29.40625 -10.078125 L 27.765625 -0.859375 C 27.765625 -0.648438 27.703125 -0.453125 27.578125 -0.265625 C 27.453125 -0.0859375 27.285156 0 27.078125 0 L 3.328125 0 C 3.128906 0 2.960938 -0.15625 2.828125 -0.46875 C 2.703125 -0.78125 2.640625 -1.085938 2.640625 -1.390625 C 2.640625 -1.703125 2.71875 -1.9375 2.875 -2.09375 Z M 2.875 -2.09375 "/></g></g></g><g fill="#ffffff" fill-opacity="1"><g transform="translate(495.188135, 69.614473)"><g><path d="M 6.90625 -15.203125 C 14.144531 -15.097656 19.457031 -13.765625 22.84375 -11.203125 C 26.226562 -8.648438 27.921875 -5.148438 27.921875 -0.703125 C 27.921875 2.242188 27.144531 4.921875 25.59375 7.328125 C 24.039062 9.734375 21.625 12.0625 18.34375 14.3125 C 15.0625 16.5625 10.707031 18.898438 5.28125 21.328125 L 5.203125 21.328125 C 4.992188 21.328125 4.820312 21.210938 4.6875 20.984375 C 4.5625 20.753906 4.601562 20.585938 4.8125 20.484375 C 10.394531 17.328125 14.3125 14.144531 16.5625 10.9375 C 18.8125 7.726562 19.9375 4.289062 19.9375 0.625 C 19.9375 -3.664062 18.664062 -7 16.125 -9.375 C 13.59375 -11.757812 9.976562 -12.953125 5.28125 -12.953125 C 5.019531 -12.953125 4.8125 -13.039062 4.65625 -13.21875 C 4.5 -13.40625 4.445312 -13.628906 4.5 -13.890625 L 6.984375 -27.703125 C 7.035156 -28.054688 7.113281 -28.269531 7.21875 -28.34375 C 7.320312 -28.425781 7.578125 -28.492188 7.984375 -28.546875 C 14.503906 -29.328125 18.875 -29.867188 21.09375 -30.171875 C 23.320312 -30.484375 24.757812 -30.804688 25.40625 -31.140625 C 26.050781 -31.484375 26.503906 -32.039062 26.765625 -32.8125 C 26.816406 -32.96875 26.984375 -33.03125 27.265625 -33 C 27.554688 -32.976562 27.675781 -32.863281 27.625 -32.65625 L 26.0625 -24.046875 C 25.90625 -23.484375 25.671875 -23.109375 25.359375 -22.921875 C 25.054688 -22.742188 24.566406 -22.65625 23.890625 -22.65625 L 9.15625 -22.34375 C 8.476562 -22.34375 8.085938 -21.976562 7.984375 -21.25 Z M 6.90625 -15.203125 "/></g></g></g></g></g></svg>